<svg xmlns="http://www.w3.org/2000/svg" viewBox="0 0 1205.96 443.58"><defs><style>.a09751c9-2952-4fdc-9059-9620ff7a0c86{fill:#82a2b8;}.b36e450d-bc05-4f11-8d53-66811c5d870e{fill:#e86d5a;}</style></defs><title>Recurso 7</title><g id="a0ceb097-c23d-4532-aa30-45010464791f" data-name="Capa 2"><g id="e622b158-140f-47b3-a07a-414c575ba856" data-name="Capa 1"><path class="a09751c9-2952-4fdc-9059-9620ff7a0c86" d="M249.35,157.39c2.17-4,4-7.95,7.88-9.65.15,0,.46-.17.61-.17a6.76,6.76,0,0,0,1.08-.69c4.77-2,9.84-3.06,13.55-7.37.31-.34.77-.51,1.08-.86a5.16,5.16,0,0,1,2.92-1.37,12.05,12.05,0,0,0,9.53-7.37l4.31-9.85a3.49,3.49,0,0,0-.61-3.75,14,14,0,0,0-3.9-2.89c-9.66-2-18.9,2.83-27.82,6.24a40.5,40.5,0,0,0-10.33,9c-.15.17-.16.52-.31.69-2.94,3.62-4.19,8.29-4.67,13a46.16,46.16,0,0,0,2.07,15.79,2.74,2.74,0,0,0,.91,1.39C247.19,160.33,248.58,158.77,249.35,157.39Z"/><path class="a09751c9-2952-4fdc-9059-9620ff7a0c86" d="M263.23,169.4a10.8,10.8,0,0,0,4.76-2.08,59.56,59.56,0,0,1,5.06-4c3.07-2.08,6.3-3.12,9.52-5a11.75,11.75,0,0,0,3.69-3.82,5.6,5.6,0,0,1,.76-1.21c.31-.35.31-.87.62-1.39l.46-.52c1.84-3.64,3.38-7.45,6-10.57,2.15-3,1.69-6.93,1.84-10.4a20.09,20.09,0,0,0-1-6.3,1.07,1.07,0,0,0-2-.36l-3.38,5.68a22.73,22.73,0,0,0-1.72,3.5c-2.12,5.57-7.64,8.55-12.63,10.48a38.07,38.07,0,0,0-3.84,1.91,52.92,52.92,0,0,0-4.6,4c-2.92,2.26-6,2.78-9.22,4a5.14,5.14,0,0,0-2.3,1.56c-1.69,2.08-3.07,4.33-5.07,6.07a4.87,4.87,0,0,0-1.07,3.64c.15.86.92,1.21,1.54,1.56a76.12,76.12,0,0,0,10.59,3.12A7.35,7.35,0,0,0,263.23,169.4Z"/><path class="a09751c9-2952-4fdc-9059-9620ff7a0c86" d="M1115.1,175a4.72,4.72,0,0,0-1-3.32,28.62,28.62,0,0,0-3.68-5c-4.06-4.08-10.26-5.31-16-5a39.32,39.32,0,0,0-18.83,6.32,24.72,24.72,0,0,0-3.6,2.76,23.89,23.89,0,0,0-4.77,6.62,21.76,21.76,0,0,0-2.68,10.69,26.24,26.24,0,0,0,2.42,8.94,11.94,11.94,0,0,0,1.61,2.93,10.78,10.78,0,0,0,2.7,2.18,31.17,31.17,0,0,0,26.86,2.49,13.06,13.06,0,0,0,3.41-1.79c.82-.62,1.51-1.4,2.32-2,1.84-1.43,4.2-2.06,6-3.52A11.53,11.53,0,0,0,1112,195a21.18,21.18,0,0,0,3.93-11.4,2.73,2.73,0,0,0-.14-1.21c-.55-1.23-2.31-1.11-3.62-.78-5.72,1.44-11.43,2.88-17.11,4.48a23.19,23.19,0,0,0-5.94,2.31c-1.06.65-2,1.46-3,2.15a22,22,0,0,1-8.89,3.27,4.34,4.34,0,0,1-2.09,0,1.59,1.59,0,0,1-1.15-1.57,2.14,2.14,0,0,1,.73-1.21,21.26,21.26,0,0,1,6.81-3.95l8.77-3.73a14,14,0,0,1,3.88-1.22,26,26,0,0,1,2.93,0,33.54,33.54,0,0,0,5.09-.53,16.94,16.94,0,0,0,4.07-1c2.3-1,3.79-3.8,6.27-4.09,1.21-.15,2.24-.43,2.61-1.45Z"/><path class="a09751c9-2952-4fdc-9059-9620ff7a0c86" d="M1148.63,131.72a24.15,24.15,0,0,1,10.21,1.2c1.72.66,3.33,1.61,5.08,2.18a24.15,24.15,0,0,0,6,.93,7.38,7.38,0,0,0,2.1-.08c1.11-.27,2.1-1.07,3.24-1a5.61,5.61,0,0,0,1.35.12,2.26,2.26,0,0,0,1.18-.78,10.37,10.37,0,0,0,1.23-1.67,4.09,4.09,0,0,0,.49-2.61c-.65-4.42-3.57-8.29-6.56-11.69a19.2,19.2,0,0,0-5.15-4.5,20.88,20.88,0,0,0-3.42-1.33,57.65,57.65,0,0,0-8.06-2.14,32.22,32.22,0,0,0-9.9,0,24.83,24.83,0,0,0-5.94,1.53,19.18,19.18,0,0,0-11.33,13.7,7,7,0,0,0,0,3.64,5.71,5.71,0,0,0,3.83,3.37,14.09,14.09,0,0,0,5.26.29C1141.77,132.56,1145.18,132,1148.63,131.72Z"/><path class="a09751c9-2952-4fdc-9059-9620ff7a0c86" d="M1163.43,155.06a23.58,23.58,0,0,0,4.91-1.32,11.83,11.83,0,0,0,5.07-4.24c1.08-1.62,1.75-3.48,2.85-5.08.74-1.09,1.66-2,2.36-3.14a5,5,0,0,0,.87-3.73c-.08-.33.24-.55-.19-.57s-.94,1.09-1.3,1.33c-2,1.33-4.8.92-7.2,1.33a14.9,14.9,0,0,1-3.71.32,17.88,17.88,0,0,1-4.66-1.35,41.59,41.59,0,0,0-18.63-2.28c-2,.22-4,.59-6.08.68a39.51,39.51,0,0,1-7.9-.65,1.37,1.37,0,0,0-1.24.21,1.22,1.22,0,0,0-.23.84,10.46,10.46,0,0,0,2,5.54c1.07,1.67,2.36,3.21,3.35,4.93a24.84,24.84,0,0,0,1.75,3,9.94,9.94,0,0,0,1.79,1.76,21.39,21.39,0,0,0,12.75,4.05A63.37,63.37,0,0,0,1163.43,155.06Z"/><path class="b36e450d-bc05-4f11-8d53-66811c5d870e" d="M82,87.41a10,10,0,0,1,10-10H865.07v-10H92a20,20,0,0,0-20,20v74H82Z"/><path class="a09751c9-2952-4fdc-9059-9620ff7a0c86" d="M1071.36,58c-9-13-17.86-42.36-81.74-54.62,0,0-70.55-18-84.23,28.81-5.21,7.34-12.15,22-14.44,36.76S874.9,123.51,924.2,169.6c13.06,9.6,17.68,17.3,62.64,12.65A223.23,223.23,0,0,0,1027.6,156s38.51-15.55,46.22-20.18,26.13-14.56,31.85-36.38S1108.85,52.78,1071.36,58Zm-23.54,9.14c-37,35.59-98.3,22-129.13-11.92s48.7-43.66,48.7-43.66C986.68,11.08,1084.78,31.57,1047.82,67.15Zm-2,65.47c10.35-21.68,14.34-28.62,21.33-47.33,0,0,19.88-15.54,26.72-3.41S1087.73,128.66,1045.79,132.62Z"/><path class="b36e450d-bc05-4f11-8d53-66811c5d870e" d="M160.85,388.77H92a10,10,0,0,1-10-10V322.66H72v56.11a20,20,0,0,0,20,20h68.89Z"/><path class="b36e450d-bc05-4f11-8d53-66811c5d870e" d="M1186,67.41h-64.22v10H1186a10,10,0,0,1,10,10V378.77a10,10,0,0,1-10,10H347.14v10H1186a20,20,0,0,0,20-20V87.41A20,20,0,0,0,1186,67.41Z"/><path class="a09751c9-2952-4fdc-9059-9620ff7a0c86" d="M25.81,159C9.6,158.36,1.68,171.6.09,188.92S18,223.22,18,223.22c17.94,34.3,37.91,49,56.83,68.64,14.71,29.95,107.39,96.39,107.39,96.39s65,44.84,97.09,53.19c28.25,7.37,45.79-5.74,50.89-17s-17.44-34.29-17.44-34.29-64-57.11-81.49-74.24S72.23,183.47,70.44,181.74,42,159.63,25.81,159Zm275.3,253.45c-50.82,4.91-128.75-50.71-128.75-50.71,17.83,2.67,33.34-3.79,49.39,1.39C258.14,374.88,291.64,402.86,301.11,412.44Zm-63.85-65C165.94,359.86,106.08,310,106.08,310,164.71,299.93,226.25,341,237.26,347.4Zm-56.07-55.15C82.78,301.24,51.78,253,51.78,253S123.51,245.2,181.19,292.25Zm-54.47-47.87c-105-5.81-108-39.86-108-39.86C53.51,185.3,115.62,233.67,126.72,244.38Z"/></g></g></svg>