<svg xmlns="http://www.w3.org/2000/svg" viewBox="0 0 329.94 45.89"><defs><style>.bddf731e-35c4-49d3-9561-ccb4e35b146c{fill:#e86d5a;stroke:#e86d5a;stroke-miterlimit:10;}.f91fc201-0803-4a62-bcd1-c8654140c494{fill:#fff;}</style></defs><title>Recurso 8</title><g id="a5edbab3-d2eb-405a-874d-9bfc4a1d2ac0" data-name="Capa 2"><g id="bd8d314e-7e34-4482-ad94-c21fbef2e71a" data-name="Capa 1"><rect class="bddf731e-35c4-49d3-9561-ccb4e35b146c" x="0.5" y="0.5" width="328.94" height="44.89" rx="5.2"/><path class="f91fc201-0803-4a62-bcd1-c8654140c494" d="M131.56,31.45a1.66,1.66,0,0,1-.49,1.22,1.53,1.53,0,0,1-1.16.5h-9.1a2.08,2.08,0,0,1-1.52-.63,2.05,2.05,0,0,1-.64-1.53V17.33a2.05,2.05,0,0,1,.64-1.53,2.08,2.08,0,0,1,1.52-.63h9.1a1.56,1.56,0,0,1,1.16.49,1.67,1.67,0,0,1,.49,1.21,1.59,1.59,0,0,1-.49,1.18,1.56,1.56,0,0,1-1.16.49h-7.42v3.81h7.23a1.53,1.53,0,0,1,1.16.5,1.63,1.63,0,0,1,.49,1.2,1.61,1.61,0,0,1-.49,1.19,1.59,1.59,0,0,1-1.16.48h-7.23V29.8h7.42a1.67,1.67,0,0,1,1.65,1.65Z"/><path class="f91fc201-0803-4a62-bcd1-c8654140c494" d="M150.34,31.89a2.36,2.36,0,0,1-.5.74,2.51,2.51,0,0,1-.76.52,2.43,2.43,0,0,1-.94.19,2.45,2.45,0,0,1-1.92-1l-8-10.93v10a1.79,1.79,0,0,1-.57,1.33,1.91,1.91,0,0,1-1.38.56,1.91,1.91,0,0,1-1.89-1.89v-14a2.4,2.4,0,0,1,.19-.92,2.57,2.57,0,0,1,.53-.78,2.38,2.38,0,0,1,.8-.55,2.31,2.31,0,0,1,1-.21,2.65,2.65,0,0,1,1.18.27,2.43,2.43,0,0,1,.93.79l7.67,10.42V16.89a1.79,1.79,0,0,1,.57-1.33,1.87,1.87,0,0,1,1.37-.56,1.84,1.84,0,0,1,1.34.56,1.8,1.8,0,0,1,.55,1.33V31A2.38,2.38,0,0,1,150.34,31.89Z"/><path class="f91fc201-0803-4a62-bcd1-c8654140c494" d="M170,17a1.89,1.89,0,0,1-.13.7l-5.24,13.61a3.07,3.07,0,0,1-1.17,1.47,3.12,3.12,0,0,1-1.77.56h-.38a3.12,3.12,0,0,1-1.77-.56,3,3,0,0,1-1.17-1.47L153.13,17.7A1.56,1.56,0,0,1,153,17a2,2,0,0,1,.55-1.36A1.84,1.84,0,0,1,155,15a2.13,2.13,0,0,1,1.16.35,1.92,1.92,0,0,1,.76,1L161.53,29l4.56-12.67a2,2,0,0,1,.74-1A2,2,0,0,1,168,15a2,2,0,0,1,1.49.61A2,2,0,0,1,170,17Z"/><path class="f91fc201-0803-4a62-bcd1-c8654140c494" d="M175.81,32.78a1.91,1.91,0,0,1-1.38.56,1.91,1.91,0,0,1-1.89-1.89V16.89a1.79,1.79,0,0,1,.57-1.33,1.91,1.91,0,0,1,1.38-.56,1.91,1.91,0,0,1,1.89,1.89V31.45A1.79,1.79,0,0,1,175.81,32.78Z"/><path class="f91fc201-0803-4a62-bcd1-c8654140c494" d="M195.87,31.28a2.11,2.11,0,0,1-.55,1.41,1.88,1.88,0,0,1-1.5.65,2.05,2.05,0,0,1-1.13-.34,1.81,1.81,0,0,1-.73-.93l-.7-1.95h-7.73l-.73,1.95a1.83,1.83,0,0,1-.74.93,2.12,2.12,0,0,1-1.15.34,1.87,1.87,0,0,1-1.47-.64,2.08,2.08,0,0,1-.55-1.42,1.72,1.72,0,0,1,.13-.72L184.29,17a3,3,0,0,1,1.17-1.47,3.12,3.12,0,0,1,1.77-.56,3.28,3.28,0,0,1,2,.48A2.93,2.93,0,0,1,190.5,17l5.24,13.53A2.29,2.29,0,0,1,195.87,31.28Zm-5.67-4.53L187.39,19l-2.8,7.75Z"/><path class="f91fc201-0803-4a62-bcd1-c8654140c494" d="M212.85,21a6.27,6.27,0,0,1-.33,2.11,5.32,5.32,0,0,1-.91,1.58,5.17,5.17,0,0,1-1.27,1.08,4.73,4.73,0,0,1-1.43.58l2.49,4.21a1.89,1.89,0,0,1-.27,2.21,1.71,1.71,0,0,1-1.37.6,1.83,1.83,0,0,1-.95-.26,2,2,0,0,1-.7-.72L205,26.77h-2.8v4.68a1.81,1.81,0,0,1-.56,1.33,1.91,1.91,0,0,1-1.38.56,1.84,1.84,0,0,1-1.34-.56,1.8,1.8,0,0,1-.55-1.33V17.33a2.15,2.15,0,0,1,2.16-2.16h6.25a6.94,6.94,0,0,1,2.52.43,5.47,5.47,0,0,1,1.9,1.21,5.38,5.38,0,0,1,1.2,1.85A6.24,6.24,0,0,1,212.85,21Zm-6.58-2.43h-4V23.4h4a2.92,2.92,0,0,0,1.93-.65A2.2,2.2,0,0,0,209,21a2.2,2.2,0,0,0-.77-1.78A2.92,2.92,0,0,0,206.27,18.54Z"/></g></g></svg>